<svg width="1074" height="256" viewBox="0 0 1074 256" fill="none" xmlns="http://www.w3.org/2000/svg">
<path d="M96 42.6667L32 85.3333V213.333L96 170.667L160 213.333L224 170.667V42.6667L160 85.3333L96 42.6667Z" fill="#2E9CC9"/>
<path fill-rule="evenodd" clip-rule="evenodd" d="M229.035 33.2587C230.737 34.1701 232.16 35.5267 233.152 37.1836C234.144 38.8405 234.668 40.7356 234.667 42.6667V170.667C234.667 172.422 234.234 174.151 233.406 175.699C232.578 177.247 231.381 178.567 229.92 179.541L165.92 222.208C164.167 223.377 162.107 224.002 160 224.002C157.893 224.002 155.833 223.377 154.08 222.208L96.0002 183.488L37.9202 222.208C36.3138 223.28 34.4465 223.895 32.5177 223.989C30.5888 224.083 28.6707 223.651 26.968 222.74C25.2653 221.829 23.8418 220.473 22.8495 218.816C21.8572 217.159 21.3332 215.264 21.3335 213.333V85.3333C21.3332 83.5777 21.7663 81.8491 22.5944 80.301C23.4224 78.7529 24.6197 77.4331 26.0802 76.4587L90.0802 33.792C91.833 32.6225 93.893 31.9984 96.0002 31.9984C98.1073 31.9984 100.167 32.6225 101.92 33.792L160 72.512L218.08 33.792C219.687 32.7195 221.554 32.1035 223.484 32.0095C225.413 31.9156 227.332 32.3473 229.035 33.2587ZM42.6668 91.04V193.397L90.0802 161.792C91.833 160.623 93.893 159.998 96.0002 159.998C98.1073 159.998 100.167 160.623 101.92 161.792L160 200.512L213.333 164.96V62.6027L165.92 94.208C164.167 95.3775 162.107 96.0016 160 96.0016C157.893 96.0016 155.833 95.3775 154.08 94.208L96.0002 55.488L42.6668 91.04Z" fill="#2E9CC9"/>
<path d="M326.496 173.5C325.216 173.5 324.576 172.817 324.576 171.452V101.052C324.576 100.455 324.747 99.9853 325.088 99.644C325.429 99.3027 325.899 99.132 326.496 99.132H343.136C344.416 99.132 345.099 99.772 345.184 101.052L345.568 107.708C350.773 100.796 358.155 97.34 367.712 97.34C375.904 97.34 382.261 99.7293 386.784 104.508C391.392 109.201 393.696 115.644 393.696 123.836V171.452C393.696 172.817 393.013 173.5 391.648 173.5H372.064C370.784 173.5 370.144 172.817 370.144 171.452V132.028C370.144 122.556 366.773 117.82 360.032 117.82C356.277 117.82 353.333 119.313 351.2 122.3C349.152 125.287 348.128 129.34 348.128 134.46V171.452C348.128 172.817 347.488 173.5 346.208 173.5H326.496ZM434.908 175.164C427.228 175.164 420.785 173.585 415.58 170.428C410.46 167.271 406.833 162.577 404.7 156.348C404.615 156.177 404.572 155.921 404.572 155.58C404.572 154.641 405.084 154.044 406.108 153.788L421.596 150.716L422.236 150.588C423.089 150.588 423.729 151.015 424.156 151.868C426.289 155.623 429.532 157.5 433.884 157.5C436.017 157.5 437.724 157.073 439.004 156.22C440.369 155.281 441.052 154.044 441.052 152.508C441.052 149.351 438.62 147.175 433.756 145.98L430.044 145.084C422.108 143.207 416.263 140.177 412.508 135.996C408.839 131.815 407.004 126.78 407.004 120.892C407.004 113.639 409.521 107.921 414.556 103.74C419.676 99.4733 426.673 97.34 435.548 97.34C442.887 97.34 448.817 98.8333 453.34 101.82C457.863 104.807 461.233 109.372 463.452 115.516C463.537 115.687 463.58 115.943 463.58 116.284C463.58 117.137 463.025 117.692 461.916 117.948L447.324 120.636L446.684 120.764C445.831 120.764 445.191 120.337 444.764 119.484C443.057 116.327 440.284 114.748 436.444 114.748C434.481 114.748 432.903 115.175 431.708 116.028C430.599 116.881 430.044 118.033 430.044 119.484C430.044 121.02 430.641 122.3 431.836 123.324C433.116 124.263 435.207 125.116 438.108 125.884L441.564 126.78C449.585 128.828 455.431 131.9 459.1 135.996C462.769 140.092 464.604 145.169 464.604 151.228C464.604 158.993 461.916 164.924 456.54 169.02C451.164 173.116 443.953 175.164 434.908 175.164ZM404.523 90.684C403.158 90.684 402.475 90.0013 402.475 88.636V76.092C402.475 74.7267 403.158 74.044 404.523 74.044H463.275C463.872 74.044 464.384 74.2573 464.811 74.684C465.152 75.0253 465.323 75.4947 465.323 76.092V82.236C465.323 84.8813 464.555 86.972 463.019 88.508C461.398 89.9587 459.179 90.684 456.363 90.684H404.523ZM510.615 175.164C499.692 175.164 491.159 172.305 485.015 166.588C478.956 160.785 475.927 152.764 475.927 142.524V101.052C475.927 99.772 476.61 99.132 477.975 99.132H497.559C498.839 99.132 499.479 99.772 499.479 101.052V141.116C499.479 145.553 500.418 148.967 502.295 151.356C504.258 153.66 507.031 154.812 510.615 154.812C514.114 154.812 516.802 153.66 518.679 151.356C520.642 148.967 521.623 145.553 521.623 141.116V74.428C521.623 73.0627 522.306 72.38 523.671 72.38H543.127C544.492 72.38 545.175 73.0627 545.175 74.428V142.524C545.175 152.764 542.103 160.785 535.959 166.588C529.9 172.305 521.452 175.164 510.615 175.164ZM564.014 173.5C562.649 173.5 561.966 172.817 561.966 171.452V101.052C561.966 99.772 562.649 99.132 564.014 99.132H583.47C584.835 99.132 585.518 99.772 585.518 101.052V171.452C585.518 172.817 584.835 173.5 583.47 173.5H564.014ZM604.496 173.5C603.216 173.5 602.576 172.817 602.576 171.452V101.052C602.576 100.455 602.747 99.9853 603.088 99.644C603.429 99.3027 603.899 99.132 604.496 99.132H621.136C622.416 99.132 623.099 99.772 623.184 101.052L623.568 107.708C628.773 100.796 636.155 97.34 645.712 97.34C653.904 97.34 660.261 99.7293 664.784 104.508C669.392 109.201 671.696 115.644 671.696 123.836V171.452C671.696 172.817 671.013 173.5 669.648 173.5H650.064C648.784 173.5 648.144 172.817 648.144 171.452V132.028C648.144 122.556 644.773 117.82 638.032 117.82C634.277 117.82 631.333 119.313 629.2 122.3C627.152 125.287 626.128 129.34 626.128 134.46V171.452C626.128 172.817 625.488 173.5 624.208 173.5H604.496ZM609.648 90.684C608.283 90.684 607.6 90.0013 607.6 88.636V76.092C607.6 74.7267 608.283 74.044 609.648 74.044H649.84V65.468C649.84 64.8707 650.011 64.4013 650.352 64.06C650.693 63.6333 651.163 63.42 651.76 63.42H668.4C668.997 63.42 669.509 63.6333 669.936 64.06C670.277 64.4013 670.448 64.8707 670.448 65.468V82.236C670.448 84.9667 669.68 87.0573 668.144 88.508C666.523 89.9587 664.304 90.684 661.488 90.684H609.648ZM652.4 57.02C651.803 57.02 651.333 56.8493 650.992 56.508C650.565 56.0813 650.352 55.5693 650.352 54.972V34.62C650.352 33.2547 651.035 32.572 652.4 32.572H667.888C668.485 32.572 668.955 32.7853 669.296 33.212C669.637 33.5533 669.808 34.0227 669.808 34.62V54.972C669.808 55.5693 669.637 56.0813 669.296 56.508C668.955 56.8493 668.485 57.02 667.888 57.02H652.4ZM716.108 173.5C706.124 173.5 698.572 171.58 693.452 167.74C688.332 163.815 685.772 158.183 685.772 150.844C685.772 146.492 686.839 142.78 688.972 139.708C691.105 136.551 694.135 134.375 698.06 133.18C693.964 132.241 690.721 130.321 688.332 127.42C686.028 124.519 684.876 120.892 684.876 116.54C684.876 110.567 687.052 105.916 691.404 102.588C695.841 99.1747 701.9 97.468 709.58 97.468C714.273 97.468 718.583 98.1933 722.508 99.644C723.532 99.9853 723.959 100.796 723.788 102.076L721.868 115.132C721.783 116.327 721.015 116.796 719.564 116.54C717.687 116.199 716.236 116.028 715.212 116.028C713.249 116.028 711.628 116.497 710.348 117.436C709.153 118.289 708.556 119.527 708.556 121.148C708.556 122.769 709.153 124.049 710.348 124.988C711.543 125.841 713.207 126.268 715.34 126.268H721.868C723.233 126.268 723.916 126.951 723.916 128.316V139.196C723.916 140.561 723.233 141.244 721.868 141.244H718.284C715.639 141.244 713.548 141.799 712.012 142.908C710.561 144.017 709.836 145.553 709.836 147.516C709.836 152.124 712.823 154.428 718.796 154.428H729.292C729.889 154.428 730.359 154.257 730.7 153.916C731.127 153.575 731.34 153.105 731.34 152.508V101.052C731.34 100.455 731.511 99.9853 731.852 99.644C732.279 99.3027 732.791 99.132 733.388 99.132H752.844C753.441 99.132 753.911 99.3027 754.252 99.644C754.679 99.9853 754.892 100.455 754.892 101.052V171.452C754.892 172.817 754.209 173.5 752.844 173.5H716.108ZM802.156 175.164C793.793 175.164 786.796 173.244 781.164 169.404C775.532 165.479 771.649 159.889 769.516 152.636C769.431 152.465 769.388 152.209 769.388 151.868C769.388 150.929 769.9 150.332 770.924 150.076L789.1 145.34C789.271 145.255 789.527 145.212 789.868 145.212C790.721 145.212 791.319 145.724 791.66 146.748C792.769 149.479 794.177 151.569 795.884 153.02C797.676 154.385 799.724 155.068 802.028 155.068C805.697 155.068 808.641 153.361 810.86 149.948C813.079 146.535 814.188 141.927 814.188 136.124C814.188 130.407 813.036 125.884 810.732 122.556C808.513 119.143 805.441 117.436 801.516 117.436C798.956 117.436 796.652 118.204 794.604 119.74C792.641 121.276 791.105 123.452 789.996 126.268C789.484 127.633 788.631 128.145 787.436 127.804L769.644 123.324C768.961 123.153 768.492 122.855 768.236 122.428C767.98 121.916 767.937 121.361 768.108 120.764C770.583 113.255 774.721 107.495 780.524 103.484C786.412 99.388 793.623 97.34 802.156 97.34C809.495 97.34 815.895 98.9187 821.356 102.076C826.817 105.233 830.999 109.756 833.9 115.644C836.887 121.447 838.38 128.273 838.38 136.124C838.38 144.145 836.929 151.1 834.028 156.988C831.127 162.791 826.945 167.271 821.484 170.428C816.023 173.585 809.58 175.164 802.156 175.164ZM885.24 175.164C874.317 175.164 865.784 172.305 859.64 166.588C853.581 160.785 850.552 152.764 850.552 142.524V101.052C850.552 99.772 851.235 99.132 852.6 99.132H872.184C873.464 99.132 874.104 99.772 874.104 101.052V141.116C874.104 145.553 875.043 148.967 876.92 151.356C878.883 153.66 881.656 154.812 885.24 154.812C888.739 154.812 891.427 153.66 893.304 151.356C895.267 148.967 896.248 145.553 896.248 141.116V74.428C896.248 73.0627 896.931 72.38 898.296 72.38H917.752C919.117 72.38 919.8 73.0627 919.8 74.428V142.524C919.8 152.764 916.728 160.785 910.584 166.588C904.525 172.305 896.077 175.164 885.24 175.164ZM867.498 90.684C866.901 90.684 866.431 90.5133 866.09 90.172C865.749 89.7453 865.578 89.2333 865.578 88.636V64.188C865.578 63.5907 865.749 63.1213 866.09 62.78C866.431 62.3533 866.901 62.14 867.498 62.14H885.034C885.631 62.14 886.143 62.3533 886.57 62.78C886.911 63.1213 887.082 63.5907 887.082 64.188V88.636C887.082 90.0013 886.399 90.684 885.034 90.684H867.498ZM964.623 173.5C963.258 173.5 962.575 172.817 962.575 171.452V125.628C962.575 123.153 962.02 121.233 960.911 119.868C959.802 118.503 958.266 117.82 956.303 117.82C953.487 117.82 951.439 119.228 950.159 122.044C949.647 123.239 948.794 123.708 947.599 123.452L931.087 118.844C929.722 118.417 929.252 117.607 929.679 116.412C931.642 110.524 935.14 105.873 940.175 102.46C945.295 99.0467 951.268 97.34 958.095 97.34C966.628 97.34 973.412 100.028 978.447 105.404C983.567 110.695 986.127 117.863 986.127 126.908V171.452C986.127 172.817 985.444 173.5 984.079 173.5H964.623ZM1032.53 175.164C1024.17 175.164 1017.17 173.244 1011.54 169.404C1005.91 165.479 1002.02 159.889 999.891 152.636C999.806 152.465 999.763 152.209 999.763 151.868C999.763 150.929 1000.28 150.332 1001.3 150.076L1019.48 145.34C1019.65 145.255 1019.9 145.212 1020.24 145.212C1021.1 145.212 1021.69 145.724 1022.04 146.748C1023.14 149.479 1024.55 151.569 1026.26 153.02C1028.05 154.385 1030.1 155.068 1032.4 155.068C1036.07 155.068 1039.02 153.361 1041.24 149.948C1043.45 146.535 1044.56 141.927 1044.56 136.124C1044.56 130.407 1043.41 125.884 1041.11 122.556C1038.89 119.143 1035.82 117.436 1031.89 117.436C1029.33 117.436 1027.03 118.204 1024.98 119.74C1023.02 121.276 1021.48 123.452 1020.37 126.268C1019.86 127.633 1019.01 128.145 1017.81 127.804L1000.02 123.324C999.336 123.153 998.867 122.855 998.611 122.428C998.355 121.916 998.312 121.361 998.483 120.764C1000.96 113.255 1005.1 107.495 1010.9 103.484C1016.79 99.388 1024 97.34 1032.53 97.34C1039.87 97.34 1046.27 98.9187 1051.73 102.076C1057.19 105.233 1061.37 109.756 1064.28 115.644C1067.26 121.447 1068.76 128.273 1068.76 136.124C1068.76 144.145 1067.3 151.1 1064.4 156.988C1061.5 162.791 1057.32 167.271 1051.86 170.428C1046.4 173.585 1039.96 175.164 1032.53 175.164Z" fill="#2E9CC9"/>
</svg>
