<svg width="256" height="256" viewBox="0 0 256 256" fill="none" xmlns="http://www.w3.org/2000/svg">
<path d="M96 42.6667L32 85.3334V213.333L96 170.667L160 213.333L224 170.667V42.6667L160 85.3334L96 42.6667Z" fill="#2E9CC9"/>
<path fill-rule="evenodd" clip-rule="evenodd" d="M229.035 33.2586C230.737 34.1701 232.16 35.5267 233.152 37.1836C234.144 38.8405 234.668 40.7355 234.667 42.6666V170.667C234.667 172.422 234.234 174.151 233.406 175.699C232.578 177.247 231.381 178.567 229.92 179.541L165.92 222.208C164.167 223.377 162.107 224.002 160 224.002C157.893 224.002 155.833 223.377 154.08 222.208L96.0002 183.488L37.9202 222.208C36.3138 223.28 34.4465 223.895 32.5177 223.989C30.5888 224.083 28.6707 223.651 26.968 222.74C25.2653 221.829 23.8418 220.473 22.8495 218.816C21.8572 217.159 21.3332 215.264 21.3335 213.333V85.3333C21.3332 83.5777 21.7663 81.8491 22.5944 80.301C23.4224 78.7528 24.6197 77.433 26.0802 76.4586L90.0802 33.792C91.833 32.6225 93.893 31.9984 96.0002 31.9984C98.1073 31.9984 100.167 32.6225 101.92 33.792L160 72.512L218.08 33.792C219.687 32.7195 221.554 32.1034 223.484 32.0095C225.413 31.9156 227.332 32.3473 229.035 33.2586ZM42.6668 91.04V193.397L90.0802 161.792C91.833 160.622 93.893 159.998 96.0002 159.998C98.1073 159.998 100.167 160.622 101.92 161.792L160 200.512L213.333 164.96V62.6026L165.92 94.208C164.167 95.3775 162.107 96.0016 160 96.0016C157.893 96.0016 155.833 95.3775 154.08 94.208L96.0002 55.488L42.6668 91.04Z" fill="#2E9CC9"/>
</svg>
