{
  "accessors": [
    {
      "bufferView": 2,
      "componentType": 5126,
      "count": 43373,
      "max": [
        18.317636489868164,
        26.553672790527344,
        0.48543399572372437
      ],
      "min": [
        -22.699705123901367,
        -15.198708534240723,
        -47.54560089111328
      ],
      "type": "VEC3"
    },
    {
      "bufferView": 2,
      "byteOffset": 520476,
      "componentType": 5126,
      "count": 43373,
      "max": [
        1.0,
        0.9999913573265076,
        0.9999992251396179
      ],
      "min": [
        -0.9999999403953552,
        -0.9999943971633911,
        -0.9999992251396179
      ],
      "type": "VEC3"
    },
    {
      "bufferView": 3,
      "componentType": 5126,
      "count": 43373,
      "max": [
        0.9999982714653015,
        0.9999736547470093,
        0.9999887943267822,
        1.0
      ],
      "min": [
        -0.9999997615814209,
        -0.9999843239784241,
        -0.9999992847442627,
        -1.0
      ],
      "type": "VEC4"
    },
    {
      "bufferView": 1,
      "componentType": 5126,
      "count": 43373,
      "max": [
        0.975471019744873,
        0.9180690050125122
      ],
      "min": [
        0.024529000744223595,
        0.07346200942993164
      ],
      "type": "VEC2"
    },
    {
      "bufferView": 1,
      "byteOffset": 346984,
      "componentType": 5126,
      "count": 43373,
      "max": [
        0.975471019744873,
        0.9180690050125122
      ],
      "min": [
        0.024529000744223595,
        0.07346200942993164
      ],
      "type": "VEC2"
    },
    {
      "bufferView": 1,
      "byteOffset": 693968,
      "componentType": 5126,
      "count": 43373,
      "max": [
        0.975471019744873,
        0.9180690050125122
      ],
      "min": [
        0.024529000744223595,
        0.07346200942993164
      ],
      "type": "VEC2"
    },
    {
      "bufferView": 1,
      "byteOffset": 1040952,
      "componentType": 5126,
      "count": 43373,
      "max": [
        0.975471019744873,
        0.9180690050125122
      ],
      "min": [
        0.024529000744223595,
        0.07346200942993164
      ],
      "type": "VEC2"
    },
    {
      "bufferView": 0,
      "componentType": 5125,
      "count": 245037,
      "type": "SCALAR"
    }
  ],
  "asset": {
    "extras": {
      "author": "kanesk06 (https://sketchfab.com/kanesk06)",
      "license": "CC-BY-4.0 (http://creativecommons.org/licenses/by/4.0/)",
      "source": "https://sketchfab.com/3d-models/large-backpack-white-texture-mockup-52cf030883e74170b47cd64f349aa7ce",
      "title": "Large Backpack - White Texture (Mockup)"
    },
    "generator": "Sketchfab-15.31.0",
    "version": "2.0"
  },
  "bufferViews": [
    {
      "buffer": 0,
      "byteLength": 980148,
      "name": "floatBufferViews",
      "target": 34963
    },
    {
      "buffer": 0,
      "byteLength": 1387936,
      "byteOffset": 980148,
      "byteStride": 8,
      "name": "floatBufferViews",
      "target": 34962
    },
    {
      "buffer": 0,
      "byteLength": 1040952,
      "byteOffset": 2368084,
      "byteStride": 12,
      "name": "floatBufferViews",
      "target": 34962
    },
    {
      "buffer": 0,
      "byteLength": 693968,
      "byteOffset": 3409036,
      "byteStride": 16,
      "name": "floatBufferViews",
      "target": 34962
    }
  ],
  "buffers": [
    {
      "byteLength": 4103004,
      "uri": "scene.bin"
    }
  ],
  "images": [
    {
      "uri": "textures/Material.001_baseColor.png"
    },
    {
      "uri": "textures/Material.001_metallicRoughness.png"
    },
    {
      "uri": "textures/Material.001_normal.png"
    }
  ],
  "materials": [
    {
      "doubleSided": true,
      "name": "Material.001",
      "normalTexture": {
        "index": 2
      },
      "pbrMetallicRoughness": {
        "baseColorTexture": {
          "index": 0
        },
        "metallicRoughnessTexture": {
          "index": 1
        }
      }
    }
  ],
  "meshes": [
    {
      "name": "Object_0",
      "primitives": [
        {
          "attributes": {
            "NORMAL": 1,
            "POSITION": 0,
            "TANGENT": 2,
            "TEXCOORD_0": 3,
            "TEXCOORD_1": 4,
            "TEXCOORD_2": 5,
            "TEXCOORD_3": 6
          },
          "indices": 7,
          "material": 0,
          "mode": 4
        }
      ]
    }
  ],
  "nodes": [
    {
      "children": [
        1
      ],
      "matrix": [
        1.0,
        0.0,
        0.0,
        0.0,
        0.0,
        2.220446049250313e-16,
        -1.0,
        0.0,
        0.0,
        1.0,
        2.220446049250313e-16,
        0.0,
        0.0,
        0.0,
        0.0,
        1.0
      ],
      "name": "Sketchfab_model"
    },
    {
      "children": [
        2
      ],
      "name": "root"
    },
    {
      "children": [
        3
      ],
      "matrix": [
        1.0,
        0.0,
        0.0,
        0.0,
        0.0,
        2.220446049250313e-16,
        1.0,
        0.0,
        0.0,
        -1.0,
        2.220446049250313e-16,
        0.0,
        0.0,
        0.0,
        0.0,
        1.0
      ],
      "name": "GLTF_SceneRootNode"
    },
    {
      "children": [
        4
      ],
      "matrix": [
        1.0,
        0.0,
        0.0,
        0.0,
        0.0,
        -1.685873969314855e-07,
        0.9999999999999858,
        0.0,
        0.0,
        -0.9999999999999858,
        -1.685873969314855e-07,
        0.0,
        0.0,
        0.0,
        0.0,
        1.0
      ],
      "name": "Final_0"
    },
    {
      "mesh": 0,
      "name": "Object_4"
    }
  ],
  "samplers": [
    {
      "magFilter": 9729,
      "minFilter": 9987,
      "wrapS": 10497,
      "wrapT": 10497
    }
  ],
  "scene": 0,
  "scenes": [
    {
      "name": "Sketchfab_Scene",
      "nodes": [
        0
      ]
    }
  ],
  "textures": [
    {
      "sampler": 0,
      "source": 0
    },
    {
      "sampler": 0,
      "source": 1
    },
    {
      "sampler": 0,
      "source": 2
    }
  ]
}
