<svg width="23" height="32" viewBox="0 0 23 32" fill="none" xmlns="http://www.w3.org/2000/svg">
<g clip-path="url(#clip0_1014_104)">
<path d="M14.5609 0.532124C13.4967 0.1935 12.3357 0 11.1505 0C7.74004 0 4.66824 1.548 2.6123 3.99093L7.88517 8.41723L14.5609 0.532124Z" fill="#EBEBEB"/>
<path d="M2.61224 3.99072C0.991686 5.92572 0 8.44121 0 11.1502C0 13.2545 0.411187 14.9476 1.11262 16.4714L7.88511 8.41703L2.61224 3.99072Z" fill="#DBDBDB"/>
<path d="M11.1747 6.89353C13.5451 6.89353 15.4559 8.80433 15.4559 11.1747C15.4559 12.2148 15.0689 13.1823 14.4401 13.9321C14.4401 13.9321 17.8021 9.91696 21.0916 6.02278C19.7371 3.41053 17.3909 1.42716 14.561 0.532227L7.88525 8.41733C8.68344 7.49821 9.84444 6.89353 11.1747 6.89353Z" fill="#D1D1D1"/>
<path d="M11.1748 15.4314C8.8044 15.4314 6.89359 13.5205 6.89359 11.1502C6.89359 10.1101 7.25641 9.14262 7.88528 8.41699L1.11279 16.4714C2.27379 19.0353 4.20879 21.1154 6.19216 23.7035L14.4401 13.9075C13.6419 14.8509 12.4809 15.4314 11.1748 15.4314Z" fill="#EDEDED"/>
<path d="M14.2947 26.4125C18.0196 20.5833 22.3491 17.9469 22.3491 11.1744C22.3491 9.31195 21.8896 7.57046 21.0914 6.02246L6.19189 23.7035C6.82077 24.5259 7.47383 25.4692 8.1027 26.4367C10.3763 29.9439 9.74745 32.024 11.1987 32.024C12.6499 32.024 12.0211 29.9197 14.2947 26.4125Z" fill="white"/>
</g>
<defs>
<clipPath id="clip0_1014_104">
<rect width="22.325" height="32" fill="white"/>
</clipPath>
</defs>
</svg>
