<?xml version="1.0" encoding="UTF-8"?>
<svg width="84" height="24" id="Layer_2" data-name="Layer 2" xmlns="http://www.w3.org/2000/svg" viewBox="0 0 264.96 77.44">
  <defs>
    <style>
      .cls-1 {
        fill: #fff;
      }
    </style>
  </defs>
  <g id="Layer_1-2" data-name="Layer 1">
    <g>
      <path class="cls-1" d="m84.87,9.72c-1.38.59-2.51,1.38-3.38,2.37-.85.98-1.47,2.18-1.77,3.47-.26,1.08-.4,2.22-.4,3.39v9.6h6.88v-2.5c.01-3.05.73-5.14,2.2-6.39,1.58-1.33,3.98-2.01,7.15-2.01h6.02v58.71h13.53V17.65h21.31v-8.79h-46.54c-1.98,0-3.61.28-5,.86Z"/>
      <path class="cls-1" d="m68.57.07v43.58c0,5.23-.41,9.96-1.2,14.06-.87,4.31-2.43,7.96-4.69,10.87-2.28,2.98-5.44,5.24-9.4,6.73-3.83,1.43-8.5,2.11-14.27,2.11s-10.01-.69-13.8-2.11c-3.89-1.47-7.06-3.72-9.43-6.7-2.32-2.91-3.99-6.56-4.94-10.84-.92-4.08-1.38-8.82-1.38-14.11V15.36c0-2.7-.36-4.94-1.06-6.49-.18-.39-.59-1.24-3.58-1.29H0V0h12.2c2.1,0,3.82.2,5.27.57,1.79.45,3.33,1.44,4.41,2.85,1.04,1.34,1.72,3.01,2.07,5.12.31,1.82.46,4.06.46,6.81v31.46c0,3.51.29,6.66.88,9.36.55,2.55,1.45,4.69,2.7,6.39,1.2,1.66,2.73,2.91,4.66,3.8,1.97.91,4.52,1.37,7.59,1.37.04.01.07,0,.1,0,3.61,0,6.66-.46,9.06-1.38,2.27-.88,4.04-2.18,5.44-4,1.43-1.87,2.45-4.32,3.06-7.26.66-3.15.99-6.99.99-11.44V.07h9.68Z"/>
      <path class="cls-1" d="m190.53,57.08c-2.31,3.86-4.95,6.83-7.87,8.84-2.84,1.95-6.17,2.9-10.19,2.9-3.41,0-6.22-.68-8.59-2.07-2.42-1.43-4.34-3.24-5.88-5.53-1.57-2.33-2.73-5.04-3.45-8.06-.76-3.12-1.14-6.33-1.14-9.56,0-5.26.53-9.7,1.59-13.21,1.02-3.39,2.43-6.15,4.17-8.2,1.73-2.02,3.65-3.42,5.89-4.3,2.35-.91,4.77-1.36,7.41-1.36,4.37,0,7.77,1.19,10.42,3.61,2.65,2.44,4.52,6.45,5.55,11.93l.39,1.99h6.21v-2.46c0-2.77-.09-5.5-.28-8.11-.21-3.02-1.06-5.47-2.51-7.28-1.89-2.39-4.76-4.33-8.77-5.95-3.85-1.56-8.46-2.35-13.7-2.35-4.19,0-8.18.96-11.87,2.85-3.64,1.86-6.87,4.46-9.57,7.72-2.66,3.2-4.81,7-6.38,11.31-1.55,4.28-2.33,8.93-2.33,13.81s.69,9.04,2.06,13.07c1.38,4.12,3.4,7.74,6.01,10.78,2.62,3.07,5.84,5.53,9.58,7.31,3.74,1.78,7.95,2.68,12.52,2.68,2.82,0,5.53-.26,8.06-.79,2.61-.55,5.07-1.5,7.3-2.82,2.22-1.31,4.32-3.04,6.25-5.17,1.9-2.1,3.64-4.73,5.16-7.8l.91-1.83-5.53-4.28-1.41,2.33Z"/>
      <path class="cls-1" d="m259.45,54.74l-1.4,2.33h0c-2.31,3.87-4.97,6.84-7.88,8.84-2.84,1.95-6.17,2.9-10.19,2.9-3.41,0-6.22-.68-8.59-2.07-2.42-1.44-4.34-3.25-5.88-5.53-1.57-2.35-2.74-5.06-3.46-8.06-.75-3.12-1.14-6.34-1.14-9.56,0-5.26.53-9.71,1.59-13.21,1.02-3.39,2.43-6.15,4.17-8.2,1.72-2.02,3.65-3.42,5.88-4.3,2.35-.91,4.77-1.36,7.41-1.36,4.36,0,7.77,1.19,10.42,3.61,2.65,2.44,4.52,6.45,5.55,11.93l.38,2h6.21v-2.46c0-2.86-.09-5.59-.27-8.11-.21-3.02-1.06-5.47-2.51-7.28-1.9-2.39-4.77-4.34-8.77-5.95-3.85-1.56-8.46-2.35-13.7-2.35-4.19,0-8.18.96-11.86,2.85-3.65,1.86-6.88,4.46-9.58,7.72-2.67,3.2-4.81,7.01-6.38,11.31-1.55,4.29-2.34,8.94-2.34,13.82s.69,9.03,2.06,13.07c1.37,4.1,3.39,7.73,6,10.78,2.62,3.07,5.84,5.53,9.57,7.31,3.74,1.78,7.95,2.68,12.52,2.68,2.82,0,5.53-.26,8.06-.79,2.62-.55,5.08-1.5,7.3-2.82,2.22-1.31,4.32-3.05,6.25-5.16,1.91-2.1,3.65-4.73,5.18-7.81l.89-1.83-5.51-4.28Z"/>
    </g>
  </g>
</svg>